<svg width="76" height="76" viewBox="0 0 76 76" fill="none" xmlns="http://www.w3.org/2000/svg">
<path d="M46.1122 6.09189C22.7412 6.71232 27.125 27.1434 34.952 40.0701C43.2411 53.7613 34.9172 58.3111 34.9172 58.3111C35.457 57.5084 35.813 56.5959 35.9596 55.6389C35.9589 55.0636 35.885 54.4909 35.7395 53.9344C35.3805 52.9074 34.5883 52.0755 33.6907 51.4946C31.9534 50.4756 29.9428 49.9725 27.9426 49.8424C27.0601 49.696 26.1648 49.7681 25.2788 49.7495C24.797 49.7971 24.3164 49.2719 24.4681 48.7979C24.6533 47.6007 24.7123 46.3872 24.6441 45.1776C24.6163 44.8058 24.5862 44.4108 24.3801 44.0889C24.1149 43.6463 23.7361 43.2524 23.618 42.7366C23.6273 42.4577 23.7338 42.194 23.7709 41.9233C23.7373 41.5224 23.4894 41.1715 23.4732 40.7695C23.5242 39.4172 24.1901 38.0683 23.7825 36.7182C23.611 35.9328 22.8559 35.5122 22.2548 35.0788C22.0659 34.9338 21.8235 34.8641 21.6058 34.7648C21.3133 34.6315 21.1917 34.3087 21.1771 33.9875C21.1696 33.8242 21.1677 33.6602 21.175 33.4973C21.1929 33.1031 21.3774 32.7355 21.6854 32.4888C22.0873 32.1668 22.5448 31.9066 22.8918 31.5259C23.3273 31.0309 23.8705 30.6359 24.2423 30.0875C24.8283 29.2638 25.4665 28.4179 25.6251 27.3909C25.7513 26.8783 25.7939 26.3486 25.7514 25.8224C25.6785 24.6846 25.3646 23.5756 24.8306 22.5692C24.6789 22.2799 24.5179 21.9941 24.343 21.7164C23.9087 21.0309 24.0396 20.1851 24.0732 19.4171C24.2944 18.2727 24.5526 17.1178 25.068 16.064C25.6862 14.5015 26.5525 13.0498 27.6334 11.7652C28.4029 10.7933 29.2935 9.92454 30.2833 9.18008C31.8594 8.00212 33.6287 7.10992 35.5114 6.54385L35.5704 6.52642C37.0727 6.06854 38.6257 5.79926 40.1939 5.72475C41.7934 5.64923 44.0518 5.65968 46.1122 6.09189Z" fill="white"/>
<path d="M37.5623 33.013C41.09 33.013 43.9497 30.1443 43.9497 26.6055C43.9497 23.0666 41.09 20.1979 37.5623 20.1979C34.0347 20.1979 31.1749 23.0666 31.1749 26.6055C31.1749 30.1443 34.0347 33.013 37.5623 33.013Z" fill="#BEC643"/>
<path d="M40.6222 21.9697C44.1499 21.9697 47.0096 19.101 47.0096 15.5621C47.0096 12.0233 44.1499 9.15455 40.6222 9.15455C37.0946 9.15455 34.2349 12.0233 34.2349 15.5621C34.2349 19.101 37.0946 21.9697 40.6222 21.9697Z" fill="#A1488C"/>
<path d="M37.5625 30.9275C39.942 30.9275 41.8709 28.9924 41.8709 26.6054C41.8709 24.2184 39.942 22.2833 37.5625 22.2833C35.183 22.2833 33.254 24.2184 33.254 26.6054C33.254 28.9924 35.183 30.9275 37.5625 30.9275Z" fill="#7F900D"/>
<path d="M48.4423 30.2096C51.97 30.2096 54.8297 27.3408 54.8297 23.802C54.8297 20.2632 51.97 17.3944 48.4423 17.3944C44.9147 17.3944 42.0549 20.2632 42.0549 23.802C42.0549 27.3408 44.9147 30.2096 48.4423 30.2096Z" fill="#80B6CF"/>
<path d="M48.4425 28.124C50.822 28.124 52.7509 26.1889 52.7509 23.8019C52.7509 21.4149 50.822 19.4798 48.4425 19.4798C46.063 19.4798 44.134 21.4149 44.134 23.8019C44.134 26.1889 46.063 28.124 48.4425 28.124Z" fill="#4082A8"/>
<path d="M40.6224 19.8841C43.0019 19.8841 44.9309 17.9491 44.9309 15.5621C44.9309 13.1751 43.0019 11.24 40.6224 11.24C38.2429 11.24 36.314 13.1751 36.314 15.5621C36.314 17.9491 38.2429 19.8841 40.6224 19.8841Z" fill="#67164A"/>
<path d="M42.0549 23.8019C42.0535 25.4182 42.6627 26.9751 43.7598 28.1588C44.0173 27.1253 44.014 26.0436 43.7501 25.0117C43.4862 23.9797 42.97 23.0301 42.2484 22.2485C42.1207 22.7564 42.0558 23.2781 42.0549 23.8019Z" fill="#5E8C38"/>
<path d="M42.4036 21.7152C43.3856 21.4282 44.2848 20.9092 45.0256 20.2017C45.7664 19.4941 46.3272 18.6186 46.661 17.6487C45.679 17.9357 44.7799 18.4547 44.0391 19.1623C43.2983 19.8698 42.7374 20.7453 42.4036 21.7152Z" fill="#513371"/>
<path d="M40.6271 21.9697C41.0375 21.9701 41.4471 21.9311 41.8501 21.8535C41.1141 21.1856 40.2331 20.6989 39.277 20.4321C38.3208 20.1653 37.3159 20.1257 36.3418 20.3163C37.5153 21.3832 39.0433 21.9727 40.6271 21.9697Z" fill="#773725"/>
<path d="M8.864 63.408H10.736V72H8.864V63.408ZM16.5897 71.352H16.4697C16.3337 71.584 16.1217 71.784 15.8337 71.952C15.5537 72.112 15.1977 72.192 14.7657 72.192C14.3897 72.192 14.0297 72.116 13.6857 71.964C13.3417 71.812 13.0377 71.6 12.7737 71.328C12.5177 71.048 12.3137 70.716 12.1617 70.332C12.0097 69.948 11.9337 69.524 11.9337 69.06C11.9337 68.596 12.0097 68.172 12.1617 67.788C12.3137 67.404 12.5177 67.076 12.7737 66.804C13.0377 66.524 13.3417 66.308 13.6857 66.156C14.0297 66.004 14.3897 65.928 14.7657 65.928C15.1977 65.928 15.5537 66.012 15.8337 66.18C16.1217 66.34 16.3337 66.536 16.4697 66.768H16.5897L16.4697 65.928V63.408H18.2697V72H16.5897V71.352ZM15.1617 70.512C15.3537 70.512 15.5337 70.48 15.7017 70.416C15.8777 70.344 16.0297 70.248 16.1577 70.128C16.2937 70 16.3977 69.848 16.4697 69.672C16.5497 69.488 16.5897 69.284 16.5897 69.06C16.5897 68.836 16.5497 68.636 16.4697 68.46C16.3977 68.284 16.2937 68.132 16.1577 68.004C16.0297 67.876 15.8777 67.78 15.7017 67.716C15.5337 67.644 15.3537 67.608 15.1617 67.608C14.9697 67.608 14.7857 67.644 14.6097 67.716C14.4417 67.78 14.2897 67.876 14.1537 68.004C14.0257 68.132 13.9217 68.284 13.8417 68.46C13.7697 68.636 13.7337 68.836 13.7337 69.06C13.7337 69.284 13.7697 69.488 13.8417 69.672C13.9217 69.848 14.0257 70 14.1537 70.128C14.2897 70.248 14.4417 70.344 14.6097 70.416C14.7857 70.48 14.9697 70.512 15.1617 70.512ZM25.2467 70.572C24.9587 71.076 24.5787 71.472 24.1067 71.76C23.6427 72.048 23.0787 72.192 22.4147 72.192C21.9587 72.192 21.5347 72.116 21.1427 71.964C20.7587 71.804 20.4227 71.584 20.1347 71.304C19.8467 71.024 19.6227 70.696 19.4627 70.32C19.3027 69.936 19.2227 69.516 19.2227 69.06C19.2227 68.636 19.3027 68.236 19.4627 67.86C19.6227 67.476 19.8427 67.144 20.1227 66.864C20.4107 66.576 20.7427 66.348 21.1187 66.18C21.5027 66.012 21.9187 65.928 22.3667 65.928C22.8547 65.928 23.2827 66.008 23.6507 66.168C24.0267 66.328 24.3387 66.548 24.5867 66.828C24.8347 67.1 25.0227 67.424 25.1507 67.8C25.2787 68.168 25.3427 68.564 25.3427 68.988C25.3427 69.052 25.3387 69.116 25.3307 69.18C25.3307 69.244 25.3267 69.3 25.3187 69.348C25.3107 69.404 25.3067 69.456 25.3067 69.504H20.9747C21.0627 69.888 21.2427 70.168 21.5147 70.344C21.7867 70.52 22.0907 70.608 22.4267 70.608C22.7627 70.608 23.0387 70.536 23.2547 70.392C23.4787 70.248 23.6547 70.064 23.7827 69.84L25.2467 70.572ZM23.6507 68.28C23.6347 68.184 23.5947 68.08 23.5307 67.968C23.4747 67.856 23.3907 67.756 23.2787 67.668C23.1747 67.572 23.0427 67.496 22.8827 67.44C22.7307 67.376 22.5587 67.344 22.3667 67.344C22.0867 67.344 21.8267 67.424 21.5867 67.584C21.3467 67.744 21.1707 67.976 21.0587 68.28H23.6507ZM29.9422 71.472H29.8222C29.6302 71.68 29.4102 71.852 29.1622 71.988C28.9222 72.124 28.6102 72.192 28.2262 72.192C27.9302 72.192 27.6502 72.144 27.3862 72.048C27.1302 71.952 26.9022 71.816 26.7022 71.64C26.5102 71.464 26.3582 71.252 26.2462 71.004C26.1342 70.756 26.0782 70.48 26.0782 70.176C26.0782 69.88 26.1382 69.612 26.2582 69.372C26.3782 69.124 26.5422 68.912 26.7502 68.736C26.9582 68.56 27.2022 68.424 27.4822 68.328C27.7702 68.232 28.0822 68.184 28.4182 68.184C28.7782 68.184 29.0742 68.208 29.3062 68.256C29.5462 68.304 29.7582 68.36 29.9422 68.424V68.268C29.9422 68.012 29.8342 67.796 29.6182 67.62C29.4102 67.436 29.1262 67.344 28.7662 67.344C28.2462 67.344 27.7982 67.556 27.4222 67.98L26.1982 67.116C26.5342 66.716 26.9222 66.42 27.3622 66.228C27.8102 66.028 28.3022 65.928 28.8382 65.928C29.7982 65.928 30.5222 66.144 31.0102 66.576C31.4982 67 31.7422 67.648 31.7422 68.52V72H29.9422V71.472ZM29.9422 69.684C29.7582 69.612 29.5742 69.556 29.3902 69.516C29.2142 69.476 29.0302 69.456 28.8382 69.456C28.5182 69.456 28.2782 69.524 28.1182 69.66C27.9582 69.788 27.8782 69.956 27.8782 70.164C27.8782 70.372 27.9542 70.54 28.1062 70.668C28.2582 70.788 28.4582 70.848 28.7062 70.848C28.9062 70.848 29.0822 70.816 29.2342 70.752C29.3942 70.68 29.5262 70.588 29.6302 70.476C29.7342 70.364 29.8102 70.24 29.8582 70.104C29.9142 69.96 29.9422 69.82 29.9422 69.684ZM32.9884 72V63.408H34.7884V72H32.9884ZM35.505 66.12H37.569L38.373 69.432H38.493L39.537 66.12H41.385L42.417 69.432H42.537L43.329 66.12H45.369L43.497 72H41.529L40.485 68.688H40.365L39.333 72H37.377L35.505 66.12ZM51.6608 70.572C51.3728 71.076 50.9928 71.472 50.5208 71.76C50.0568 72.048 49.4928 72.192 48.8288 72.192C48.3728 72.192 47.9488 72.116 47.5568 71.964C47.1728 71.804 46.8368 71.584 46.5488 71.304C46.2608 71.024 46.0368 70.696 45.8768 70.32C45.7168 69.936 45.6368 69.516 45.6368 69.06C45.6368 68.636 45.7168 68.236 45.8768 67.86C46.0368 67.476 46.2568 67.144 46.5368 66.864C46.8248 66.576 47.1568 66.348 47.5328 66.18C47.9168 66.012 48.3328 65.928 48.7808 65.928C49.2688 65.928 49.6968 66.008 50.0648 66.168C50.4408 66.328 50.7528 66.548 51.0008 66.828C51.2488 67.1 51.4368 67.424 51.5648 67.8C51.6928 68.168 51.7568 68.564 51.7568 68.988C51.7568 69.052 51.7528 69.116 51.7448 69.18C51.7448 69.244 51.7408 69.3 51.7328 69.348C51.7248 69.404 51.7208 69.456 51.7208 69.504H47.3888C47.4768 69.888 47.6568 70.168 47.9288 70.344C48.2008 70.52 48.5048 70.608 48.8408 70.608C49.1768 70.608 49.4528 70.536 49.6688 70.392C49.8928 70.248 50.0688 70.064 50.1968 69.84L51.6608 70.572ZM50.0648 68.28C50.0488 68.184 50.0088 68.08 49.9448 67.968C49.8888 67.856 49.8048 67.756 49.6928 67.668C49.5888 67.572 49.4568 67.496 49.2968 67.44C49.1448 67.376 48.9728 67.344 48.7808 67.344C48.5008 67.344 48.2408 67.424 48.0008 67.584C47.7608 67.744 47.5848 67.976 47.4728 68.28H50.0648ZM58.5163 70.572C58.2283 71.076 57.8483 71.472 57.3763 71.76C56.9123 72.048 56.3483 72.192 55.6842 72.192C55.2283 72.192 54.8043 72.116 54.4123 71.964C54.0283 71.804 53.6923 71.584 53.4043 71.304C53.1163 71.024 52.8923 70.696 52.7323 70.32C52.5723 69.936 52.4923 69.516 52.4923 69.06C52.4923 68.636 52.5723 68.236 52.7323 67.86C52.8923 67.476 53.1123 67.144 53.3923 66.864C53.6803 66.576 54.0123 66.348 54.3883 66.18C54.7723 66.012 55.1883 65.928 55.6363 65.928C56.1243 65.928 56.5523 66.008 56.9203 66.168C57.2963 66.328 57.6083 66.548 57.8563 66.828C58.1043 67.1 58.2923 67.424 58.4203 67.8C58.5483 68.168 58.6123 68.564 58.6123 68.988C58.6123 69.052 58.6083 69.116 58.6003 69.18C58.6003 69.244 58.5963 69.3 58.5883 69.348C58.5803 69.404 58.5763 69.456 58.5763 69.504H54.2443C54.3323 69.888 54.5123 70.168 54.7843 70.344C55.0563 70.52 55.3603 70.608 55.6963 70.608C56.0323 70.608 56.3083 70.536 56.5243 70.392C56.7483 70.248 56.9243 70.064 57.0523 69.84L58.5163 70.572ZM56.9203 68.28C56.9043 68.184 56.8643 68.08 56.8003 67.968C56.7443 67.856 56.6603 67.756 56.5483 67.668C56.4443 67.572 56.3123 67.496 56.1523 67.44C56.0003 67.376 55.8283 67.344 55.6363 67.344C55.3563 67.344 55.0963 67.424 54.8563 67.584C54.6163 67.744 54.4403 67.976 54.3283 68.28H56.9203ZM61.3051 66.864H61.4251C61.8251 66.24 62.4251 65.928 63.2251 65.928C63.9611 65.928 64.5091 66.164 64.8691 66.636C65.2291 67.108 65.4091 67.728 65.4091 68.496V72H63.6091V68.7C63.6091 68.38 63.5331 68.12 63.3811 67.92C63.2291 67.712 62.9931 67.608 62.6731 67.608C62.2651 67.608 61.9531 67.764 61.7371 68.076C61.5291 68.388 61.4251 68.796 61.4251 69.3V72H59.6251V66.12H61.3051V66.864Z" fill="white"/>
</svg>
