<svg width="26" height="27" viewBox="0 0 26 27" fill="none" xmlns="http://www.w3.org/2000/svg">
<g filter="url(#filter0_d_336_866)">
<path d="M11.325 18.9833C10.825 18.9833 10.35 18.7333 10.025 18.2917L9.02501 16.9583C9.02501 16.9667 8.98334 16.9417 8.96667 16.9417H8.65835C5.80835 16.9417 4.04167 16.1667 4.04167 12.325V8.99167C4.04167 5.48334 6.18335 4.56667 7.98335 4.40834C8.18335 4.38334 8.41668 4.375 8.65835 4.375H13.9917C17.0083 4.375 18.6083 5.97501 18.6083 8.99167V12.325C18.6083 12.5667 18.6 12.8 18.5667 13.025C18.4167 14.8 17.5 16.9417 13.9917 16.9417H13.6583L12.625 18.2917C12.3 18.7333 11.825 18.9833 11.325 18.9833ZM8.65835 5.625C8.46668 5.625 8.28334 5.63333 8.10834 5.65C6.17501 5.81667 5.29167 6.87501 5.29167 8.99167V12.325C5.29167 15.1833 6.17501 15.6917 8.65835 15.6917H8.99167C9.36667 15.6917 9.79167 15.9 10.025 16.2L11.025 17.5417C11.2083 17.7917 11.4417 17.7917 11.625 17.5417L12.625 16.2083C12.8667 15.8833 13.25 15.6917 13.6583 15.6917H13.9917C16.1083 15.6917 17.1667 14.8 17.325 12.9C17.35 12.7 17.3583 12.5167 17.3583 12.325V8.99167C17.3583 6.66667 16.3167 5.625 13.9917 5.625H8.65835Z" fill="white"/>
<path d="M11.3252 11.8251C10.8585 11.8251 10.4919 11.4501 10.4919 10.9918C10.4919 10.5334 10.8669 10.1584 11.3252 10.1584C11.7835 10.1584 12.1585 10.5334 12.1585 10.9918C12.1585 11.4501 11.7919 11.8251 11.3252 11.8251Z" fill="white"/>
<path d="M13.9916 11.8251C13.5249 11.8251 13.1583 11.4501 13.1583 10.9918C13.1583 10.5334 13.5333 10.1584 13.9916 10.1584C14.4499 10.1584 14.8249 10.5334 14.8249 10.9918C14.8249 11.4501 14.4499 11.8251 13.9916 11.8251Z" fill="white"/>
<path d="M8.66651 11.8251C8.19984 11.8251 7.83318 11.4501 7.83318 10.9918C7.83318 10.5334 8.20818 10.1584 8.66651 10.1584C9.12484 10.1584 9.49984 10.5334 9.49984 10.9918C9.49984 11.4501 9.12484 11.8251 8.66651 11.8251Z" fill="white"/>
<path d="M17.9501 13.5751C17.7835 13.5751 17.6168 13.5084 17.5001 13.3834C17.3668 13.2501 17.3085 13.0584 17.3335 12.8751C17.3585 12.7001 17.3668 12.5168 17.3668 12.3251V8.99176C17.3668 6.66676 16.3251 5.62508 14.0001 5.62508H8.66677C8.47511 5.62508 8.2918 5.63341 8.1168 5.65008C7.93346 5.67508 7.74178 5.6084 7.60845 5.4834C7.47512 5.35007 7.40011 5.16676 7.41677 4.98342C7.56677 3.18342 8.49177 1.04175 12.0001 1.04175H17.3335C20.3501 1.04175 21.9501 2.64176 21.9501 5.65842V8.99176C21.9501 12.5001 19.8085 13.4168 18.0085 13.5751C17.9835 13.5751 17.9668 13.5751 17.9501 13.5751ZM8.76679 4.37508H13.9918C17.0085 4.37508 18.6085 5.97509 18.6085 8.99176V12.2168C20.0251 11.8668 20.6918 10.8251 20.6918 8.99176V5.65842C20.6918 3.33342 19.6501 2.29175 17.3251 2.29175H11.9918C10.1585 2.29175 9.12513 2.95841 8.76679 4.37508Z" fill="white"/>
</g>
<defs>
<filter id="filter0_d_336_866" x="-1" y="0" width="28" height="28" filterUnits="userSpaceOnUse" color-interpolation-filters="sRGB">
<feFlood flood-opacity="0" result="BackgroundImageFix"/>
<feColorMatrix in="SourceAlpha" type="matrix" values="0 0 0 0 0 0 0 0 0 0 0 0 0 0 0 0 0 0 127 0" result="hardAlpha"/>
<feOffset dy="4"/>
<feGaussianBlur stdDeviation="2"/>
<feComposite in2="hardAlpha" operator="out"/>
<feColorMatrix type="matrix" values="0 0 0 0 0 0 0 0 0 0 0 0 0 0 0 0 0 0 0.25 0"/>
<feBlend mode="normal" in2="BackgroundImageFix" result="effect1_dropShadow_336_866"/>
<feBlend mode="normal" in="SourceGraphic" in2="effect1_dropShadow_336_866" result="shape"/>
</filter>
</defs>
</svg>
